<svg viewBox="0 0 21 20" fill="none" xmlns="http://www.w3.org/2000/svg">
  <path
    d="M7 5.5V3.25C7 3.05109 7.07902 2.86032 7.21967 2.71967C7.36032 2.57902 7.55109 2.5 7.75 2.5H16.75C16.9489 2.5 17.1397 2.57902 17.2803 2.71967C17.421 2.86032 17.5 3.05109 17.5 3.25V13.75C17.5 13.9489 17.421 14.1397 17.2803 14.2803C17.1397 14.421 16.9489 14.5 16.75 14.5H14.5V16.75C14.5 17.164 14.1625 17.5 13.7448 17.5H4.75525C4.65635 17.5006 4.5583 17.4816 4.46674 17.4442C4.37519 17.4068 4.29192 17.3517 4.22174 17.282C4.15156 17.2123 4.09584 17.1294 4.05779 17.0381C4.01974 16.9468 4.0001 16.8489 4 16.75L4.00225 6.25C4.00225 5.836 4.33975 5.5 4.7575 5.5H7ZM5.50225 7L5.5 16H13V7H5.50225ZM8.5 5.5H14.5V13H16V4H8.5V5.5Z"
    fill="rgb(150, 150, 150)"
  />
</svg>
